<svg width="16" height="19" viewBox="0 0 15.4 18.45" xmlns="http://www.w3.org/2000/svg" xmlns:xlink="http://www.w3.org/1999/xlink" version="1.1" xml:space="preserve">
    <path fill="#111110"
        d="M204.28,446.64v-1.83a4,4,0,0,0-1.28-2.75,3.91,3.91,0,0,0-2.79-1h-.34a4,4,0,0,0-3.79,4.1v1.52h-3.6v9.83a3,3,0,0,0,3,3h9.4a3,3,0,0,0,3-3v-9.83Zm-6.7-1.56a2.46,2.46,0,0,1,2.36-2.56h.27a2.48,2.48,0,0,1,2.57,2.36v1.76h-5.2Zm8.8,11.39a1.5,1.5,0,0,1-1.5,1.5h-9.4a1.5,1.5,0,0,1-1.5-1.5v-8.33h2.1v3.36h1.5v-3.36h5.2v3.36h1.5v-3.36h2.1Z"
        transform="translate(-192.48 -441.02)"></path>
</svg>