<svg width="11" height="22" viewBox="0 0 11.2 22.17" xmlns="http://www.w3.org/2000/svg" xmlns:xlink="http://www.w3.org/1999/xlink" version="1.1" xml:space="preserve">
    <g id="facebook">
        <path fill="#fffefa"
            d="M.36,11.81H2.79v10a.36.36,0,0,0,.36.36H7.27a.36.36,0,0,0,.36-.36h0v-10h2.79a.35.35,0,0,0,.35-.31l.43-3.68a.36.36,0,0,0-.32-.4H7.62V5.15c0-.7.38-1.05,1.12-1.05h2.1a.36.36,0,0,0,.36-.36h0V.36A.36.36,0,0,0,10.84,0h-3A5.5,5.5,0,0,0,4.18,1.37,3.79,3.79,0,0,0,2.91,4.76v2.7H.36A.36.36,0,0,0,0,7.81H0v3.64a.36.36,0,0,0,.36.36Z">
        </path>
    </g>
</svg>