<?xml version="1.0" encoding="UTF-8"?>
<svg id="Capa_1" data-name="Capa 1" xmlns="http://www.w3.org/2000/svg" viewBox="0 0 225 34">
  <path d="m91.13,20.08h-1.09v-.17c1.91-.83,3.09-2.78,2.93-4.86,0-3.83-1.98-6.06-5.92-6.06h-9.74v20.35h2.54v-7.85h10.64v7.85h2.54v-7.23c0-1.34-.47-2.04-1.9-2.04Zm-4.55-.78h0s-6.73,0-6.73,0v-8.04h6.73c2.32,0,3.71,1.06,3.71,3.1v1.81c0,1.9-1.37,3.13-3.71,3.13Z"/>
  <path d="m102.75,9l-7.68,20.35h2.65l1.79-4.8h9.35l1.79,4.8h2.74l-7.73-20.35h-2.9Zm5.33,13.46h-7.79l1.28-3.49,2.57-7.4h.14l2.51,7.4,1.28,3.49Z"/>
  <path d="m128.91,21.59c0,3.57-2.21,5.7-5.67,5.7s-5.64-2.12-5.64-5.7v-12.59h-2.51v12.81c-.1,2.11.68,4.17,2.15,5.7,3.49,2.83,8.48,2.83,11.98,0,1.49-1.51,2.27-3.58,2.17-5.7v-12.81h-2.48v12.59Z"/>
  <path d="m150.74,15.81h2.62c-.18-2.03-1.18-3.89-2.76-5.17-1.74-1.34-3.89-2.02-6.09-1.93-6.03,0-9.46,3.88-9.46,10.47s3.43,10.44,9.24,10.44c2.19.08,4.35-.59,6.11-1.9,1.62-1.29,2.68-3.15,2.96-5.19h-2.62c-.66,2.94-3.35,4.97-6.36,4.8-1.78.08-3.51-.56-4.8-1.79-1.23-1.22-1.9-2.9-1.84-4.63v-3.29c-.09-1.78.57-3.52,1.81-4.8h0c1.33-1.24,3.1-1.88,4.91-1.79,3.49,0,5.72,1.87,6.28,4.77Z"/>
  <path d="m161.85,9l-7.68,20.35h2.65l1.79-4.8h9.35l1.79,4.8h2.74l-7.73-20.35h-2.9Zm5.33,13.46h-7.79l1.29-3.49,2.57-7.4h.14l2.51,7.4,1.28,3.49Z"/>
  <polygon points="188.5 20 188.7 26.17 188.56 26.17 177.76 9 174.6 9 174.6 29.35 177.14 29.35 177.14 18.1 176.98 12.18 177.09 12.18 187.86 29.35 191.02 29.35 191.02 9 188.5 9 188.5 20"/>
  <polygon points="202.74 3.72 201.71 2.13 196.88 5.65 197.66 6.85 202.74 3.72"/>
  <rect x="196.4" y="9" width="2.54" height="20.35"/>
  <path d="m212.18,9h-2.9l-7.68,20.35h2.65l1.79-4.8h9.35l1.79,4.8h2.74l-7.74-20.35Zm-5.36,13.46l1.28-3.49,2.57-7.4h.14l2.51,7.4,1.28,3.49h-7.79Z"/>
  <path d="m64.41,9l-6.62,6.14v14.22h2.54v-9.95h10.47v9.95h2.51v-14.22l-6.61-6.14h-2.29Zm6.39,8.22h-10.47v-1.39l5.11-4.49h.25l5.11,4.49v1.39Z"/>
  <path d="m16.46,6.79c-.88,0-1.47.22-1.78.67-.17.25-.27.65-.29,1.2v1.23h-1.09v1.04h1.09v6.77h1.3v-6.77h1.32v-1.04h-1.32c0-.85.04-1.38.12-1.59.08-.21.32-.31.72-.31.05,0,.11,0,.17,0,.06,0,.16,0,.3.02v-1.2c-.11,0-.21-.02-.3-.02-.09,0-.17,0-.26,0Z"/>
  <path d="m21.6,9.68c-.52,0-.98.19-1.38.57-.4.38-.65.7-.75.96v-1.35h-1.25v7.84h1.32v-4.51c0-.56.18-1.05.53-1.48.36-.43.87-.64,1.53-.64.08,0,.15,0,.22,0,.06,0,.14.01.21.03v-1.39c-.14-.01-.24-.02-.3-.03s-.1,0-.12,0Z"/>
  <path d="m26.02,9.63c-1.12,0-2.01.39-2.68,1.17-.66.78-1,1.83-1,3.15,0,1.23.32,2.21.95,2.94.63.73,1.48,1.09,2.55,1.09,1.29,0,2.23-.41,2.84-1.24.61-.83.92-1.87.92-3.13s-.35-2.3-1.04-2.97c-.69-.67-1.54-1.01-2.55-1.01Zm1.73,6.22c-.32.66-.91.99-1.78.99-.79,0-1.36-.28-1.72-.83-.36-.56-.54-1.25-.54-2.08s.18-1.61.54-2.22c.36-.61.94-.92,1.74-.92.9,0,1.53.36,1.9,1.08.23.46.35,1.05.35,1.79,0,.81-.16,1.54-.48,2.21Z"/>
  <path d="m39.32,9.68c-.49,0-.94.1-1.33.3-.4.2-.74.51-1.03.93-.18-.34-.37-.6-.59-.78-.38-.31-.88-.46-1.51-.46-.55,0-1.04.15-1.48.45-.25.18-.54.46-.85.84v-1.11h-1.3v7.84h1.32v-4.16c0-1.01.2-1.71.61-2.09.41-.39.86-.58,1.36-.58.55,0,.92.18,1.12.55.13.24.19.63.19,1.17v5.12h1.34v-4.56c0-.81.19-1.39.56-1.74.37-.35.82-.52,1.34-.52.38,0,.69.1.96.29.26.2.39.55.39,1.08v5.45h1.37v-5.22c0-.69-.1-1.24-.31-1.65-.38-.76-1.1-1.14-2.15-1.14Z"/>
  <rect x="44.42" y="16.1" width="1.53" height="1.6"/>
  <rect x="44.42" y="9.96" width="1.53" height="1.6"/>
  <rect x="3.72" y="9.47" width="3.84" height="8.81"/>
</svg>