<svg width="24.76" height="24.76" viewBox="0 0 24.76 24.76" xmlns="http://www.w3.org/2000/svg" xmlns:xlink="http://www.w3.org/1999/xlink" version="1.1" xml:space="preserve">
    <path id="Tracé_323" data-name="Tracé 323" fill="#fffefa"
        d="M12.39,6a6.36,6.36,0,1,0,6.35,6.36h0A6.35,6.35,0,0,0,12.39,6Zm0,10.48a4.13,4.13,0,1,1,4.12-4.12h0a4.13,4.13,0,0,1-4.12,4.12Z">
    </path>
    <path id="Tracé_324" data-name="Tracé 324" fill="#fffefa"
        d="M17.48.08C15.21,0,9.56,0,7.28.08a7.4,7.4,0,0,0-5.2,2C-.29,4.46,0,7.67,0,12.37s-.27,8,2.08,10.3,5.64,2.08,10.29,2.08,6.42,0,8.1-.65c2.3-.89,4-2.94,4.2-6.63.11-2.27.1-7.92,0-10.2-.2-4.34-2.54-7-7.2-7.2Zm3.61,21c-1.56,1.57-3.73,1.43-8.74,1.43s-7.22.07-8.73-1.44c-1.74-1.73-1.43-4.51-1.43-8.72,0-5.7-.58-9.8,5.14-10.1,1.31,0,1.7-.06,5-.06l.05,0c5.5,0,9.81-.58,10.07,5.14.05,1.31.07,1.7.07,5,0,5.1.1,7.18-1.44,8.72Z">
    </path>
    <circle id="Ellipse_1" data-name="Ellipse 1" fill="#fffefa" cx="18.99" cy="5.77"
        r="1.49"></circle>
</svg>