<svg id="Logo_Araucania" data-name="Logo Araucania" xmlns="http://www.w3.org/2000/svg" xmlns:xlink="http://www.w3.org/1999/xlink" width="210.818" height="35.758" viewBox="0 0 210.818 35.758">
  <defs>
    <clipPath id="clip-path">
      <rect id="Rectangle_249" data-name="Rectangle 249" width="210.818" height="35.758"/>
    </clipPath>
  </defs>
  <g id="Group_565" data-name="Group 565" clip-path="url(#clip-path)">
    <path id="Path_876" data-name="Path 876" d="M137.116,56.316H135.7V56.1c2.323-.871,3.812-3.231,3.812-6.317,0-4.974-2.577-7.878-7.7-7.878h-12.67V68.369h3.3v-10.2h13.831v10.2h3.3v-9.4c0-1.742-.617-2.65-2.469-2.65M131.2,55.3H122.45V44.844H131.2c3.013,0,4.828,1.38,4.828,4.03v2.36c0,2.469-1.779,4.066-4.828,4.066" transform="translate(-93.754 -32.973)"/>
    <path id="Path_877" data-name="Path 877" d="M237.46,41.9l-9.983,26.465h3.449l2.323-6.244H245.41l2.323,6.244h3.558L241.236,41.9Zm6.934,17.5H234.266l1.67-4.538,3.34-9.62h.181l3.267,9.62Z" transform="translate(-178.997 -32.973)"/>
    <path id="Path_878" data-name="Path 878" d="M367.577,58.276c0,4.647-2.868,7.406-7.369,7.406s-7.333-2.759-7.333-7.406V41.9h-3.267V58.567a10.021,10.021,0,0,0,2.8,7.406c1.851,1.851,4.465,2.759,7.805,2.759a10.589,10.589,0,0,0,7.769-2.759,9.9,9.9,0,0,0,2.831-7.406V41.9h-3.231Z" transform="translate(-275.099 -32.973)"/>
    <path id="Path_879" data-name="Path 879" d="M477.238,45.536a8.756,8.756,0,0,1,6.389-2.323c4.538,0,7.442,2.432,8.168,6.208h3.412a9.739,9.739,0,0,0-3.594-6.716,12.087,12.087,0,0,0-7.914-2.5c-7.842,0-12.307,5.046-12.307,13.614s4.465,13.577,12.016,13.577a12.592,12.592,0,0,0,7.95-2.469,10.464,10.464,0,0,0,3.848-6.752H491.8c-.871,3.812-4.03,6.244-8.277,6.244a8.523,8.523,0,0,1-6.244-2.323,8.1,8.1,0,0,1-2.4-6.026V51.78a8.317,8.317,0,0,1,2.36-6.244" transform="translate(-370.931 -31.633)"/>
    <path id="Path_880" data-name="Path 880" d="M598.054,41.9l-9.983,26.465h3.449l2.323-6.244H606l2.323,6.244h3.558L601.83,41.9Zm6.934,17.5H594.86l1.67-4.538,3.34-9.62h.181l3.267,9.62Z" transform="translate(-462.742 -32.973)"/>
    <path id="Path_881" data-name="Path 881" d="M730.835,56.207l.254,8.023h-.182L716.858,41.9h-4.1V68.368h3.3V53.738l-.218-7.7h.145L730,68.368h4.1V41.9h-3.267Z" transform="translate(-560.855 -32.973)"/>
    <path id="Path_882" data-name="Path 882" d="M856.3,2.069,854.96,0,848.68,4.574,849.7,6.135Z" transform="translate(-667.811 0)"/>
    <rect id="Rectangle_248" data-name="Rectangle 248" width="3.304" height="26.465" transform="translate(180.252 8.931)"/>
    <path id="Path_883" data-name="Path 883" d="M891.224,41.9h-3.775l-9.983,26.465h3.449l2.323-6.244H895.4l2.323,6.244h3.558Zm-6.97,17.5,1.67-4.538,3.34-9.62h.181l3.267,9.62,1.67,4.538Z" transform="translate(-690.461 -32.973)"/>
    <path id="Path_884" data-name="Path 884" d="M8.6,41.9,0,49.884V68.369H3.3V55.432H16.917V68.369h3.267V49.884l-8.6-7.98Zm8.313,10.7H3.3v-1.81l6.644-5.838h.327l6.643,5.838Z" transform="translate(0 -32.973)"/>
  </g>
</svg>
