<!DOCTYPE svg PUBLIC "-//W3C//DTD SVG 1.1//EN" "http://www.w3.org/Graphics/SVG/1.1/DTD/svg11.dtd">
<svg width="136" height="86" viewBox="0 0 136.22 86.19" xmlns="http://www.w3.org/2000/svg" xmlns:xlink="http://www.w3.org/1999/xlink" version="1.1" xml:space="preserve">
    <g id="Logo">
        <rect fill="#161615" y="60.26" width="135.81" height="4.25"></rect>
        <path id="Tracé_1" data-name="Tracé 1" fill="#161615"
            d="M136,70.74a11.14,11.14,0,0,0-2-.37A9.6,9.6,0,0,0,136,70.74Z"></path>
        <path id="Tracé_2" data-name="Tracé 2" fill="#161615" d="M134,70.36h0Z"></path>
        <path id="Tracé_3" data-name="Tracé 3" fill="#161615" d="M.51,74h0Z"></path>
        <path id="Tracé_4" data-name="Tracé 4" fill="#161615"
            d="M100.54,68.93l-.11.2c-1.63,0-.47-.23-2-.2-.59.27-2.5-.06-3,.08,0,0-.73,0-.68-.13-.23.15-.76,0-1.22.07-.17,0,.12,0,.25.09l-1.07,0c-.42,0-.52-.14-.06-.16-2.79-.09-16.15-.34-19.14-.28a13.51,13.51,0,0,1,1.66.23c-.8.1-1.17,0-1.52.06-.3-.27-1.74-.07-2.34-.35l-.23.15-.39-.1a26.45,26.45,0,0,1-3.88,0c-1.79,0-2.64.22-3.64.14.15,0,.54.1.08.13-.08-.13-1.23.09-1.46,0-.45,0-1.92,0-1.42.17-.25-.09-1.56-.13-.78-.21a11.81,11.81,0,0,0-1.19,0l.57.06a23.92,23.92,0,0,0-3.28,0l.55.08a5.33,5.33,0,0,1-2-.17l.91,0c-1.48,0-2.37,0-3.6.1H52c-1.58.17-9.8.29-11.25.52l.67.14-1.25.11c.15,0,.6-.45.73-.41-2.67,0-16.56.07-19,0-1-.08-.17-.22-.16-.24-1.21,0-.53.14-1.55.13-.29,0,0-.11.21-.13a3.4,3.4,0,0,0-.9,0c.57,0,.33.22.56.34l-1.32,0,.06-.11a7.46,7.46,0,0,1-2.05.23c-2.19-.06-4.57,0-6.77-.08a3.1,3.1,0,0,1,1-.14,7,7,0,0,1-1,0c.53.12-.92.07-.51.12-1.61.26-7.16,0-8.58.19-.07.12,0,1.19-.09,2.14-.79,1,.34,2.06.33,2.2-.46,0-.4.14-.53.11a4.53,4.53,0,0,0,1-.07l.09-.16c1.1,0,.25.1,1.32.12C3,74,2.65,74,1.78,74c.78,0,.88.15,1.2,0,.73.07-.07.16.79.22a15.26,15.26,0,0,1,2.14-.06l0,0c1.71.15,2.63-.15,4.19,0l-.17,0c.55.07,1.64,0,2.64.07-.29,0-.54-.12.06-.13,1.15.08,1.93,0,2.77.12l.8-.12c4,0,19.72-.07,23.71-.08l-.15,0c6.09,0,18.6,0,24.9-.13,1,.13,2.31.1,3.33.15C67.4,74,67.6,74,68,74c3.09,0,.21-.09,3.34-.12,3.6-.1,17.39.14,20.59.28,1.72-.16,3.86,0,5.54-.09l-.17,0c1.81-.06,12,.28,14.13.26l-.28,0a15.14,15.14,0,0,1,3,.21c-.18-.2,1.39-.28,2-.28l0,0c.9,0,3-.14,4.44-.12l-.07.11c1.25-.08,3.57.06,4.46.08,2,.1,5.13.47,7.78.51l1.55.49h.24a9.52,9.52,0,0,0,1.34-1.87c.5-1,.64-2.15-1.26-2.77l.08-.1-.78-.07c-.94-.17-1.36-.06-1.28-.17.39,0,.84.1,1.26.14-.94-.13-.28-.12.1-.14-.39-.05-.77-.11-1.09-.18s.13.06.28.1a14.24,14.24,0,0,1-1.73,0c-.9-.06,0-.18-1.09-.25-5.52-.42-10.77-.66-16.28-.77-.12,0,0,0,.18-.06-1.66,0-3.13,0-4.64,0A2.15,2.15,0,0,1,109,69c.12,0-2,0-4.09,0l-3,0Z">
        </path>
        <path id="Tracé_5" data-name="Tracé 5" fill="#161615"
            d="M21.46,17.79c0,4.1-3.22,6.5-9.37,6.5H.19V.34H11.4c5.75,0,8.83,2.43,8.83,6.23a5.73,5.73,0,0,1-3.08,5.26A5.91,5.91,0,0,1,21.46,17.79ZM4.63,3.83v6.6h6.29c3.08,0,4.83-1.09,4.83-3.28S14,3.83,10.92,3.83ZM17,17.34c0-2.4-1.81-3.45-5.17-3.45H4.63v6.9h7.18C15.17,20.79,17,19.73,17,17.34Z">
        </path>
        <path id="Tracé_6" data-name="Tracé 6" fill="#161615"
            d="M26.31,13.85V.34h4.45V13.68c0,4.92,2.22,7,6.09,7s6-2.12,6-7V.34h4.38V13.85c0,7-3.94,10.77-10.47,10.77S26.31,20.83,26.31,13.85Z">
        </path>
        <path id="Tracé_7" data-name="Tracé 7" fill="#161615"
            d="M53.81.34h4.45V20.52H70.77v3.76h-17Z"></path>
        <path id="Tracé_8" data-name="Tracé 8" fill="#161615"
            d="M74.61.34h4.44V20.52H91.57v3.76h-17Z"></path>
        <path id="Tracé_9" data-name="Tracé 9" fill="#161615"
            d="M113.35,20.55v3.73H95.4V.34h17.47V4.07h-13v6.22H111.4V14H99.85v6.6Z"></path>
        <path id="Tracé_10" data-name="Tracé 10" fill="#161615"
            d="M116.6,21.75l1.54-3.45a13.29,13.29,0,0,0,7.9,2.63c3.73,0,5.3-1.33,5.3-3.11,0-5.17-14.22-1.78-14.22-10.67,0-3.87,3.07-7.15,9.64-7.15a15.19,15.19,0,0,1,8,2.12l-1.4,3.45a13.37,13.37,0,0,0-6.6-1.88c-3.7,0-5.2,1.44-5.2,3.25,0,5.1,14.19,1.78,14.19,10.57,0,3.83-3.11,7.11-9.68,7.11C122.31,24.62,118.59,23.46,116.6,21.75Z">
        </path>
        <path id="Tracé_11" data-name="Tracé 11" fill="#161615"
            d="M41.12,52.91l-4.3-6.16q-.41,0-.81,0H31.25v6.13H27.34V31.85H36c5.54,0,9,2.83,9,7.49A6.74,6.74,0,0,1,40.49,46l4.84,6.92ZM35.83,35.16H31.25v8.4h4.58c3.43,0,5.2-1.56,5.2-4.21S39.25,35.16,35.83,35.16Z">
        </path>
        <path id="Tracé_12" data-name="Tracé 12" fill="#161615"
            d="M49.43,43.74V31.85h3.91V43.59c0,4.33,2,6.2,5.36,6.2S64,47.92,64,43.59V31.85h3.85V43.74c0,6.13-3.46,9.48-9.21,9.48S49.43,49.87,49.43,43.74Z">
        </path>
        <path id="Tracé_13" data-name="Tracé 13" fill="#161615"
            d="M72.12,42.38c0-6.29,4.82-10.83,11.28-10.83a10.68,10.68,0,0,1,8.34,3.52l-2.53,2.38A7.4,7.4,0,0,0,83.58,35a7.19,7.19,0,0,0-7.52,6.85,5,5,0,0,0,0,.55,7.18,7.18,0,0,0,7,7.4h.55a7.35,7.35,0,0,0,5.63-2.5l2.52,2.41a10.68,10.68,0,0,1-8.36,3.53C76.94,53.22,72.12,48.67,72.12,42.38Z">
        </path>
        <path id="Tracé_14" data-name="Tracé 14" fill="#161615"
            d="M114.49,31.85V52.91h-3.91v-9H99.69v9H95.77V31.85h3.92v8.7h10.89v-8.7Z"></path>
        <path id="Tracé_15" data-name="Tracé 15" fill="#161615"
            d="M135.81,49.63v3.28H120V31.85h15.38v3.28H123.93v5.48H134.1v3.22H123.93v5.8Z"></path>
        <path id="Tracé_16" data-name="Tracé 16" fill="#161615"
            d="M4.56,31.77H.05V42.05H4.56c3.35,0,5.6-2.06,5.6-5.14S7.91,31.77,4.56,31.77ZM2.21,33.65H4.48a3.27,3.27,0,1,1,.45,6.53H2.21Z">
        </path>
        <path id="Tracé_17" data-name="Tracé 17" fill="#161615"
            d="M13.81,40.19V37.75h4.82V35.92H13.81V33.64h5.43V31.77H11.65V42.05h7.79V40.19Z"></path>
        <path id="Tracé_18" data-name="Tracé 18" fill="#161615"
            d="M6.27,79.89v6.19H5.05V83.43H1.65v2.65H.44V79.89H1.65v2.56h3.4V79.89Z"></path>
        <path id="Tracé_19" data-name="Tracé 19" fill="#161615"
            d="M11.7,83.9v2.18H10.48V83.91l-2.57-4h1.3l1.92,3,1.94-3h1.2Z"></path>
        <path id="Tracé_20" data-name="Tracé 20" fill="#161615"
            d="M15.82,79.89h2.86c2.13,0,3.59,1.24,3.59,3.1s-1.46,3.09-3.59,3.09H15.82Zm2.81,5.22a2.14,2.14,0,1,0,.54-4.24,1.63,1.63,0,0,0-.54,0H17v4.24Z">
        </path>
        <path id="Tracé_21" data-name="Tracé 21" fill="#161615"
            d="M28.69,86.08l-1.33-1.81H25.62v1.8H24.4V79.89h2.7c1.73,0,2.79.84,2.79,2.2a2,2,0,0,1-1.4,2l1.51,2Zm-1.64-5.21H25.62v2.46H27c1.07,0,1.63-.46,1.63-1.24S28.11,80.87,27.05,80.87Z">
        </path>
        <path id="Tracé_22" data-name="Tracé 22" fill="#161615"
            d="M31.63,83A3.27,3.27,0,0,1,35,79.8h.17a3.2,3.2,0,1,1,.69,6.36,4,4,0,0,1-.69,0,3.28,3.28,0,0,1-3.52-3A1,1,0,0,1,31.63,83Zm5.84,0A2.31,2.31,0,1,0,35,85.16h.14a2.19,2.19,0,0,0,2.31-2Z">
        </path>
        <path id="Tracé_23" data-name="Tracé 23" fill="#161615"
            d="M46.86,86.08V82L44.7,85.37h-.55L42,82v4H40.83V79.89h1L44.44,84,47,79.89h1v6.19Z">
        </path>
        <path id="Tracé_24" data-name="Tracé 24" fill="#161615"
            d="M55.55,85.12v1H50.63V79.89h4.79v1H51.85v1.61H55v.94H51.85v1.7Z"></path>
        <path id="Tracé_25" data-name="Tracé 25" fill="#161615"
            d="M57.75,79.89H59v5.22H62.4v1H57.75Z"></path>
        <path id="Tracé_26" data-name="Tracé 26" fill="#161615"
            d="M72.56,85.12v1H67.63V79.89h4.79v1H68.85v1.61H72v.94H68.85v1.7Z"></path>
        <path id="Tracé_27" data-name="Tracé 27" fill="#161615"
            d="M78.82,86.08,77,83.73l-1.76,2.35h-1.4l2.44-3.15-2.3-3H75.4l1.68,2.2,1.66-2.2h1.32l-2.3,3,2.46,3.2Z">
        </path>
        <path id="Tracé_28" data-name="Tracé 28" fill="#161615"
            d="M83.07,80.87H80.89v-1h5.57v1H84.29v5.21H83.07Z"></path>
        <path id="Tracé_29" data-name="Tracé 29" fill="#161615"
            d="M92.52,86.08l-1.34-1.81H89.44v1.8H88.22V79.89h2.7c1.73,0,2.8.84,2.8,2.2a2,2,0,0,1-1.4,2l1.51,2Zm-1.65-5.21H89.44v2.46h1.42c1.07,0,1.63-.46,1.63-1.24S91.93,80.87,90.87,80.87Z">
        </path>
        <path id="Tracé_30" data-name="Tracé 30" fill="#161615"
            d="M100.17,84.65H96.89l-.64,1.43H95l3-6.19h1.2l3,6.19h-1.28Zm-.4-.9-1.23-2.7-1.24,2.7Z">
        </path>
        <path id="Tracé_31" data-name="Tracé 31" fill="#161615"
            d="M113,84.4c0,1.06-.88,1.68-2.57,1.68h-3.26V79.89h3.07c1.58,0,2.42.63,2.42,1.61a1.48,1.48,0,0,1-.84,1.36A1.54,1.54,0,0,1,113,84.4Zm-4.61-3.6v1.7h1.72c.84,0,1.32-.28,1.32-.85s-.48-.85-1.32-.85Zm3.38,3.49c0-.62-.5-.89-1.42-.89h-2v1.78h2c.92,0,1.42-.28,1.42-.89Z">
        </path>
        <path id="Tracé_32" data-name="Tracé 32" fill="#161615"
            d="M119.48,86.08l-1.34-1.81H116.4v1.8h-1.22V79.89h2.7c1.73,0,2.8.84,2.8,2.2a2,2,0,0,1-1.4,2l1.51,2Zm-1.65-5.21H116.4v2.46h1.43c1.07,0,1.62-.46,1.62-1.24S118.89,80.87,117.83,80.87Z">
        </path>
        <path id="Tracé_33" data-name="Tracé 33" fill="#161615"
            d="M122.82,83.38V79.89H124v3.45c0,1.27.61,1.82,1.67,1.82s1.66-.55,1.66-1.82V79.89h1.2v3.49a2.88,2.88,0,0,1-5.75,0Z">
        </path>
        <path id="Tracé_34" data-name="Tracé 34" fill="#161615"
            d="M132.32,80.87h-2.17v-1h5.57v1h-2.18v5.21h-1.22Z"></path>
    </g>
</svg>